<svg width="400" height="400" viewBox="0 0 400 400" xmlns="http://www.w3.org/2000/svg">
  <style>
    .icon {
      fill: none;
      stroke: #333;
      stroke-width: 2;
      stroke-linecap: round;
      stroke-linejoin: round;
    }
    .label {
      font-family: sans-serif;
      font-size: 14px;
      text-anchor: middle;
    }
    .central-text {
      font-family: sans-serif;
      font-size: 28px;
      font-weight: bold;
      text-anchor: middle;
    }
  </style>

  <!-- Central Text -->
  <text x="200" y="205" class="central-text">코딩</text>

  <!-- Icon 1: Problem Solving (Top) -->
  <g transform="translate(188, 50) scale(1.5)">
    <path class="icon" d="M18.7 8.7a6 6 0 1 0-12 0c0 2.3 2.4 4.4 3 5.8 1 1.8 1 3 1 3h4s0-1.2 1-3c.6-1.4 3-3.5 3-5.8z"></path>
    <line class="icon" x1="12" y1="18" x2="12" y2="22"></line>
  </g>
  <text x="200" y="115" class="label">문제 해결</text>

  <!-- Icon 2: Automation (Right) -->
  <g transform="translate(300, 188) scale(1.5)">
    <circle class="icon" cx="12" cy="12" r="3"></circle>
    <path class="icon" d="M19.4 15a1.65 1.65 0 0 0 .3 1.4l1.1 3.4a.2.2 0 0 1-.3.3l-3.4 1.1a1.65 1.65 0 0 0-1.4.3c-.7.5-1.2 1-1.2 1s-.5.5-1.2 1a1.65 1.65 0 0 0-1.4.3l-3.4 1.1a.2.2 0 0 1-.3-.3l1.1-3.4a1.65 1.65 0 0 0 .3-1.4c.5-.7 1-1.2 1-1.2s-.5-.5 1-1.2a1.65 1.65 0 0 0 .3-1.4l-1.1-3.4a.2.2 0 0 1 .3-.3l3.4-1.1a1.65 1.65 0 0 0 1.4-.3c.7-.5 1.2-1 1.2-1s.5-.5 1.2-1a1.65 1.65 0 0 0 1.4-.3l3.4-1.1a.2.2 0 0 1 .3.3l-1.1 3.4a1.65 1.65 0 0 0-.3 1.4c-.5.7-1 1.2-1 1.2s-.5.5-1 1.2z"></path>
  </g>
  <text x="312" y="250" class="label">자동화</text>

  <!-- Icon 3: Communication (Bottom) -->
  <g transform="translate(188, 300) scale(1.5)">
    <path class="icon" d="M21 11.5a8.38 8.38 0 0 1-.9 3.8 8.5 8.5 0 0 1-7.6 4.7 8.38 8.38 0 0 1-3.8-.9L3 21l1.9-5.7a8.38 8.38 0 0 1-.9-3.8 8.5 8.5 0 0 1 4.7-7.6 8.38 8.38 0 0 1 3.8-.9h.5a8.48 8.48 0 0 1 8 8v.5z"></path>
  </g>
  <text x="200" y="365" class="label">의사소통</text>

  <!-- Icon 4: Logical Thinking (Left) -->
  <g transform="translate(50, 188) scale(1.5)">
    <polyline class="icon" points="22 12 18 12 15 21 9 3 6 12 2 12"></polyline>
  </g>
  <text x="62" y="250" class="label">논리적 사고</text>

</svg>
